# Blender 3.4.0
# www.blender.org
o Seaweed.002
v 0.445266 0.005442 -0.005616
v -0.473439 0.001398 0.000091
v -0.492473 -0.001783 0.994308
v 0.431136 -0.003616 0.994065
v -0.470371 -0.001252 0.489166
v 0.450286 0.002154 0.495067
v -0.520175 -0.007792 0.741749
v 0.401987 -0.000552 0.736745
v -0.463581 0.005116 0.617544
v 0.455326 -0.003014 0.607849
v -0.475061 0.001969 0.870136
v 0.447764 0.006882 0.865253
v -0.471957 -0.004246 0.248671
v 0.447723 -0.006542 0.256425
v -0.516945 -0.006417 0.372844
v 0.407199 0.007296 0.362257
v -0.512969 -0.007186 0.130779
v 0.406037 -0.004112 0.125196
v -0.474983 0.006549 0.944689
v 0.447793 0.009620 0.926182
v -0.501310 -0.001295 0.810131
v 0.423120 0.007082 0.796821
v -0.509241 -0.003643 0.682651
v 0.410325 -0.001680 0.671088
v -0.446295 0.006168 0.552826
v 0.474927 -0.003448 0.553748
v -0.516684 -0.005688 0.435203
v 0.406905 0.010912 0.422758
v -0.492654 -0.002457 0.314464
v 0.427557 0.001418 0.309054
v -0.496654 -0.003815 0.192626
v 0.422404 -0.005976 0.187101
v -0.497363 -0.002163 0.070495
v 0.423353 0.005884 0.057815
v -0.489376 -0.003757 0.028755
v 0.429383 0.001799 0.029870
v -0.509158 -0.006046 0.099497
v 0.410245 0.001028 0.091275
v -0.503496 -0.011052 0.151699
v 0.415453 -0.010504 0.160701
v -0.484975 -0.001346 0.221835
v 0.434307 -0.004609 0.216337
v -0.476231 -0.004699 0.276156
v 0.443745 -0.004720 0.283933
v -0.505056 -0.004924 0.341244
v 0.415318 0.002877 0.335860
v -0.525073 -0.009076 0.397668
v 0.395380 0.005686 0.392337
v -0.495756 -0.004853 0.458827
v 0.424645 0.005786 0.458927
v -0.454097 0.006079 0.524287
v 0.466789 0.002592 0.519076
v -0.447271 0.008563 0.584785
v 0.472212 -0.001537 0.575058
v -0.483569 -0.003441 0.640531
v 0.438315 -0.008948 0.644441
v -0.514609 -0.010164 0.703391
v 0.407423 -0.005816 0.706636
v -0.512070 -0.008544 0.768435
v 0.410206 -0.001089 0.770286
v -0.486546 0.002041 0.843337
v 0.436743 0.009726 0.830061
v -0.472647 0.004098 0.903440
v 0.449873 0.009334 0.892839
v -0.483086 0.000960 0.963428
v 0.440336 0.000341 0.958634
v 0.026636 -0.002025 0.492624
v 0.040985 0.002119 0.521582
v 0.047061 0.000008 0.553528
v 0.033565 0.006772 0.584364
v 0.016022 0.004897 0.617145
v 0.011720 -0.006642 0.642893
v -0.027525 0.001300 0.681555
v -0.015527 -0.008193 0.705329
v -0.021255 -0.005090 0.739158
v -0.012433 -0.005247 0.769631
v -0.010108 0.006819 0.808553
v 0.001901 0.009961 0.841782
v 0.023884 0.003601 0.867611
v 0.013006 0.009215 0.902779
v 0.010108 0.009278 0.940932
v 0.010566 -0.003663 0.960951
v 0.001678 -0.006572 0.994384
v 0.002205 -0.001801 0.459090
v -0.024204 0.003788 0.433690
v -0.028536 -0.005163 0.394897
v -0.023505 0.001507 0.372036
v -0.008979 -0.003088 0.338444
v 0.004083 -0.001233 0.311650
v 0.022319 -0.003849 0.280641
v 0.026015 -0.003552 0.253146
v 0.013657 -0.000991 0.218972
v 0.001268 -0.003787 0.189748
v -0.006844 -0.011188 0.156848
v -0.016796 -0.007428 0.127870
v -0.023669 -0.001255 0.099499
v -0.009586 0.002203 0.068786
v 0.004832 -0.004799 0.029568
v 0.019380 -0.000440 -0.002886
vn -0.0008 1.0000 -0.0000
vn -0.0023 1.0000 -0.0003
vn 0.0052 0.9999 0.0111
vn 0.0010 1.0000 0.0029
vn -0.0134 0.9998 0.0116
vn 0.0004 1.0000 -0.0064
vn -0.0003 1.0000 -0.0039
vn 0.0012 1.0000 0.0049
vn 0.0036 1.0000 0.0033
vn -0.0051 0.9998 0.0208
vn -0.0014 0.9997 0.0248
vn 0.0001 1.0000 0.0096
vn -0.0014 1.0000 -0.0007
vn -0.0025 1.0000 -0.0012
vn 0.0037 0.9999 -0.0110
vn 0.0002 1.0000 -0.0065
vn -0.0014 0.9997 -0.0258
vn -0.0005 1.0000 -0.0042
vn -0.0013 1.0000 -0.0004
vn -0.0026 1.0000 -0.0028
vn -0.0007 1.0000 0.0006
vn -0.0008 1.0000 0.0002
vn -0.0012 1.0000 -0.0014
vn 0.0017 0.9999 0.0101
vn -0.0018 1.0000 0.0045
vn -0.0043 1.0000 -0.0017
vn -0.0019 0.9999 0.0167
vn 0.0003 0.9999 -0.0112
vn 0.0053 1.0000 -0.0068
vn 0.0071 1.0000 -0.0059
vn -0.0008 1.0000 0.0012
vn 0.0086 0.9996 0.0250
vn -0.0007 1.0000 0.0002
vn 0.0007 1.0000 0.0016
vn -0.0016 1.0000 -0.0079
vn -0.0017 0.9999 0.0110
vn 0.0007 1.0000 0.0072
vn 0.0039 0.9999 0.0099
vn -0.0002 1.0000 -0.0012
vn -0.0008 1.0000 0.0013
vn 0.0093 0.9997 -0.0206
vn 0.0052 0.9997 -0.0243
vn -0.0017 1.0000 0.0008
vn -0.0025 1.0000 -0.0022
vn -0.0036 0.9997 -0.0234
vn 0.0034 0.9998 0.0208
vn 0.0017 0.9999 0.0111
vn 0.0006 1.0000 -0.0006
vn 0.0009 1.0000 0.0057
vn -0.0003 0.9999 0.0132
vn -0.0007 0.9999 -0.0161
vn -0.0005 0.9999 0.0147
vn -0.0002 1.0000 0.0022
vn 0.0019 1.0000 0.0017
vn 0.0015 1.0000 0.0039
vn -0.0036 1.0000 -0.0032
vn 0.0032 1.0000 -0.0008
vn -0.0025 1.0000 0.0067
vn 0.0001 1.0000 -0.0026
vn -0.0017 1.0000 -0.0039
vn -0.0012 1.0000 -0.0028
vn 0.0006 1.0000 0.0005
vn 0.0003 1.0000 -0.0028
vn 0.0024 1.0000 0.0094
vn -0.0071 0.9995 0.0317
vn -0.0000 1.0000 -0.0100
vn 0.0013 1.0000 -0.0007
vn -0.0027 1.0000 -0.0005
vn -0.0065 0.9999 0.0114
vn 0.0023 1.0000 0.0041
vn -0.0015 0.9999 -0.0103
vn -0.0019 1.0000 -0.0010
vn 0.0016 1.0000 -0.0019
vn -0.0016 1.0000 -0.0085
vn 0.0044 0.9998 -0.0174
vn -0.0045 1.0000 0.0015
vn -0.0014 1.0000 -0.0032
vn 0.0003 0.9999 -0.0147
vn -0.0004 1.0000 -0.0014
vn 0.0019 1.0000 0.0057
vn 0.0010 0.9998 0.0183
vn 0.0041 0.9999 0.0119
vn 0.0013 1.0000 -0.0098
vn 0.0142 0.9998 -0.0141
vn -0.0013 1.0000 0.0016
vn 0.0184 0.9986 0.0503
vn 0.0040 0.9993 0.0383
vn -0.0012 0.9999 0.0129
vn -0.0015 1.0000 -0.0034
vn -0.0008 0.9998 0.0217
vn 0.0057 1.0000 -0.0061
vn 0.0002 1.0000 -0.0096
vn 0.0001 1.0000 0.0021
vn 0.0018 0.9997 0.0261
vn 0.0078 0.9995 0.0310
vn 0.0040 0.9999 0.0115
vn 0.0007 1.0000 0.0004
vn 0.0023 0.9999 0.0135
vn -0.0012 0.9998 0.0221
vt 0.008811 0.159250
vt 0.009763 0.015632
vt 0.993695 0.014947
vt 0.993696 0.159378
vt 0.498426 0.015347
vt 0.497961 0.159369
vt 0.741776 0.015159
vt 0.741540 0.159382
vt 0.617262 0.015257
vt 0.616909 0.159377
vt 0.868495 0.015055
vt 0.868379 0.159383
vt 0.261954 0.015510
vt 0.261257 0.159337
vt 0.375258 0.015436
vt 0.374675 0.159357
vt 0.138753 0.015578
vt 0.137928 0.159303
vt 0.932453 0.015000
vt 0.932397 0.159381
vt 0.804388 0.015108
vt 0.804212 0.159383
vt 0.680061 0.015208
vt 0.679767 0.159380
vt 0.558796 0.015302
vt 0.558389 0.159374
vt 0.435329 0.015394
vt 0.434804 0.159364
vt 0.320044 0.015474
vt 0.319406 0.159348
vt 0.199793 0.015546
vt 0.199032 0.159321
vt 0.075469 0.015607
vt 0.074579 0.159279
vt 0.041902 0.015620
vt 0.040979 0.159265
vt 0.107371 0.015593
vt 0.106514 0.159291
vt 0.166781 0.015564
vt 0.165986 0.159311
vt 0.228622 0.015530
vt 0.227890 0.159329
vt 0.289080 0.015494
vt 0.288410 0.159342
vt 0.346476 0.015456
vt 0.345864 0.159352
vt 0.402165 0.015418
vt 0.401608 0.159360
vt 0.465629 0.015372
vt 0.465133 0.159367
vt 0.527139 0.015326
vt 0.526701 0.159371
vt 0.584928 0.015282
vt 0.584545 0.159375
vt 0.646831 0.015234
vt 0.646505 0.159379
vt 0.708521 0.015186
vt 0.708253 0.159381
vt 0.771985 0.015135
vt 0.771778 0.159383
vt 0.837164 0.015081
vt 0.837018 0.159383
vt 0.898555 0.015029
vt 0.898467 0.159382
vt 0.960576 0.014976
vt 0.960547 0.159380
vt 0.498176 0.091270
vt 0.526903 0.091261
vt 0.558577 0.091251
vt 0.584722 0.091242
vt 0.617072 0.091231
vt 0.646656 0.091221
vt 0.679902 0.091210
vt 0.708377 0.091200
vt 0.741649 0.091188
vt 0.771873 0.091177
vt 0.804293 0.091164
vt 0.837085 0.091152
vt 0.868433 0.091139
vt 0.898508 0.091127
vt 0.932423 0.091112
vt 0.960560 0.091100
vt 0.993695 0.091086
vt 0.465361 0.091280
vt 0.435046 0.091288
vt 0.401865 0.091298
vt 0.374944 0.091305
vt 0.346147 0.091312
vt 0.319701 0.091318
vt 0.288721 0.091324
vt 0.261581 0.091329
vt 0.228231 0.091335
vt 0.199387 0.091339
vt 0.166358 0.091342
vt 0.138314 0.091344
vt 0.106917 0.091345
vt 0.074998 0.091345
vt 0.041414 0.091344
vt 0.009260 0.091342
s 1
f 98/98/1 36/36/2 1/1/3
f 68/68/4 52/52/5 6/6/6
f 75/75/7 7/7/8 59/59/9
f 71/71/10 9/9/11 55/55/12
f 79/79/13 11/11/14 63/63/15
f 90/90/16 44/44/17 14/14/18
f 86/86/19 48/48/20 16/16/21
f 94/94/22 40/40/23 18/18/24
f 81/81/25 19/19/26 65/65/27
f 77/77/28 21/21/29 61/61/30
f 73/73/31 23/23/32 57/57/33
f 69/69/34 25/25/35 53/53/36
f 84/84/37 50/50/38 28/28/39
f 88/88/40 46/46/41 30/30/42
f 92/92/43 42/42/44 32/32/45
f 96/96/46 38/38/47 34/34/48
f 97/97/49 34/34/48 36/36/2
f 95/95/50 18/18/24 38/38/47
f 93/93/51 32/32/45 40/40/23
f 91/91/52 14/14/18 42/42/44
f 89/89/53 30/30/42 44/44/17
f 87/87/54 16/16/21 46/46/41
f 85/85/55 28/28/39 48/48/20
f 67/67/56 6/6/6 50/50/38
f 68/68/4 51/51/57 25/25/35
f 70/70/58 53/53/36 9/9/11
f 72/72/59 55/55/12 23/23/32
f 74/74/60 57/57/33 7/7/8
f 76/76/61 59/59/9 21/21/29
f 78/78/62 61/61/30 11/11/14
f 80/80/63 63/63/15 19/19/26
f 82/82/64 65/65/27 3/3/65
f 67/67/56 5/5/66 51/51/57
f 69/69/34 26/26/67 52/52/5
f 70/70/58 54/54/68 26/26/67
f 71/71/10 10/10/69 54/54/68
f 72/72/59 56/56/70 10/10/69
f 73/73/31 24/24/71 56/56/70
f 74/74/60 58/58/72 24/24/71
f 75/75/7 8/8/73 58/58/72
f 76/76/61 60/60/74 8/8/73
f 77/77/28 22/22/75 60/60/74
f 78/78/62 62/62/76 22/22/75
f 79/79/13 12/12/77 62/62/76
f 80/80/63 64/64/78 12/12/77
f 81/81/25 20/20/79 64/64/78
f 82/82/64 66/66/80 20/20/79
f 83/83/81 4/4/82 66/66/80
f 84/84/37 49/49/83 5/5/66
f 85/85/55 27/27/84 49/49/83
f 86/86/19 47/47/85 27/27/84
f 87/87/54 15/15/86 47/47/85
f 88/88/40 45/45/87 15/15/86
f 89/89/53 29/29/88 45/45/87
f 90/90/16 43/43/89 29/29/88
f 91/91/52 13/13/90 43/43/89
f 92/92/43 41/41/91 13/13/90
f 93/93/51 31/31/92 41/41/91
f 94/94/22 39/39/93 31/31/92
f 95/95/50 17/17/94 39/39/93
f 96/96/46 37/37/95 17/17/94
f 97/97/49 33/33/96 37/37/95
f 98/98/1 35/35/97 33/33/96
f 99/99/98 2/2/99 35/35/97
f 98/98/1 1/1/3 99/99/98
f 68/68/4 6/6/6 67/67/56
f 75/75/7 59/59/9 76/76/61
f 71/71/10 55/55/12 72/72/59
f 79/79/13 63/63/15 80/80/63
f 90/90/16 14/14/18 91/91/52
f 86/86/19 16/16/21 87/87/54
f 94/94/22 18/18/24 95/95/50
f 81/81/25 65/65/27 82/82/64
f 77/77/28 61/61/30 78/78/62
f 73/73/31 57/57/33 74/74/60
f 69/69/34 53/53/36 70/70/58
f 84/84/37 28/28/39 85/85/55
f 88/88/40 30/30/42 89/89/53
f 92/92/43 32/32/45 93/93/51
f 96/96/46 34/34/48 97/97/49
f 97/97/49 36/36/2 98/98/1
f 95/95/50 38/38/47 96/96/46
f 93/93/51 40/40/23 94/94/22
f 91/91/52 42/42/44 92/92/43
f 89/89/53 44/44/17 90/90/16
f 87/87/54 46/46/41 88/88/40
f 85/85/55 48/48/20 86/86/19
f 67/67/56 50/50/38 84/84/37
f 68/68/4 25/25/35 69/69/34
f 70/70/58 9/9/11 71/71/10
f 72/72/59 23/23/32 73/73/31
f 74/74/60 7/7/8 75/75/7
f 76/76/61 21/21/29 77/77/28
f 78/78/62 11/11/14 79/79/13
f 80/80/63 19/19/26 81/81/25
f 82/82/64 3/3/65 83/83/81
f 67/67/56 51/51/57 68/68/4
f 69/69/34 52/52/5 68/68/4
f 70/70/58 26/26/67 69/69/34
f 71/71/10 54/54/68 70/70/58
f 72/72/59 10/10/69 71/71/10
f 73/73/31 56/56/70 72/72/59
f 74/74/60 24/24/71 73/73/31
f 75/75/7 58/58/72 74/74/60
f 76/76/61 8/8/73 75/75/7
f 77/77/28 60/60/74 76/76/61
f 78/78/62 22/22/75 77/77/28
f 79/79/13 62/62/76 78/78/62
f 80/80/63 12/12/77 79/79/13
f 81/81/25 64/64/78 80/80/63
f 82/82/64 20/20/79 81/81/25
f 83/83/81 66/66/80 82/82/64
f 84/84/37 5/5/66 67/67/56
f 85/85/55 49/49/83 84/84/37
f 86/86/19 27/27/84 85/85/55
f 87/87/54 47/47/85 86/86/19
f 88/88/40 15/15/86 87/87/54
f 89/89/53 45/45/87 88/88/40
f 90/90/16 29/29/88 89/89/53
f 91/91/52 43/43/89 90/90/16
f 92/92/43 13/13/90 91/91/52
f 93/93/51 41/41/91 92/92/43
f 94/94/22 31/31/92 93/93/51
f 95/95/50 39/39/93 94/94/22
f 96/96/46 17/17/94 95/95/50
f 97/97/49 37/37/95 96/96/46
f 98/98/1 33/33/96 97/97/49
f 99/99/98 35/35/97 98/98/1
