# Blender 4.4.3
# www.blender.org
o Coral_14_2
v 208.463043 -216.072266 47.243977
v 205.521057 158.536865 47.243977
v -182.827423 157.484009 47.243908
v -180.855682 -219.091309 47.243927
v -13.753114 14.342651 0.668694
vn -0.1019 0.1017 0.9896
vn -0.1613 -0.0718 0.9843
vn -0.0289 0.0121 0.9995
vn 0.0156 -0.1523 0.9882
vn -0.0789 -0.1928 0.9781
vn 0.0907 -0.2069 0.9741
vn 0.1216 -0.0293 0.9921
vn 0.1955 -0.0852 0.9770
vn 0.1707 0.0724 0.9827
vn 0.0643 0.1502 0.9866
vt 0.291066 0.614888
vt 0.290594 0.795063
vt 0.184772 0.726265
vt 0.103817 0.795534
vt 0.103817 0.614416
s 1
f 1/1/1 2/2/2 5/3/3
s 0
f 5/3/4 2/2/5 3/4/6
f 5/3/7 3/4/8 4/5/9
s 1
f 5/3/3 4/5/10 1/1/1
